<svg width="24" height="24" viewBox="0 0 24 24" fill="none" xmlns="http://www.w3.org/2000/svg">
<path d="M22.8893 17.4214V20.7233C22.8906 21.0298 22.8278 21.3332 22.705 21.6141C22.5822 21.8949 22.4021 22.147 22.1762 22.3543C21.9503 22.5615 21.6837 22.7192 21.3933 22.8174C21.1029 22.9156 20.7952 22.9521 20.49 22.9245C17.1032 22.5565 13.8499 21.3992 10.9916 19.5456C8.33229 17.8558 6.07767 15.6012 4.38785 12.9419C2.52777 10.0706 1.37021 6.80149 1.00893 3.39947C0.981429 3.09511 1.0176 2.78836 1.11514 2.49874C1.21269 2.20913 1.36947 1.943 1.5755 1.7173C1.78153 1.49159 2.0323 1.31126 2.31184 1.18779C2.59138 1.06431 2.89358 1.00039 3.19917 1.00011H6.50104C7.03518 0.99485 7.55301 1.184 7.95801 1.53229C8.363 1.88059 8.62753 2.36427 8.70229 2.89318C8.84165 3.94985 9.10011 4.98736 9.47273 5.98593C9.62081 6.37987 9.65286 6.808 9.56507 7.2196C9.47729 7.63119 9.27336 8.009 8.97744 8.30825L7.57965 9.70604C9.14645 12.4615 11.4279 14.743 14.1834 16.3098L15.5812 14.912C15.8804 14.6161 16.2582 14.4121 16.6698 14.3244C17.0814 14.2366 17.5096 14.2686 17.9035 14.4167C18.9021 14.7893 19.9396 15.0478 20.9963 15.1871C21.5309 15.2626 22.0192 15.5319 22.3682 15.9438C22.7173 16.3558 22.9027 16.8816 22.8893 17.4214Z" stroke="#056C5C" stroke-width="2" stroke-linecap="round" stroke-linejoin="round"/>
</svg>
